<?xml version="1.0" encoding="utf-8"?>
<!DOCTYPE svg PUBLIC "-//W3C//DTD SVG 1.1//EN" "http://www.w3.org/Graphics/SVG/1.1/DTD/svg11.dtd">
<svg version="1.1" baseProfile="full"
 xmlns="http://www.w3.org/2000/svg"
 xmlns:xlink="http://www.w3.org/1999/xlink"
 xmlns:ev="http://www.w3.org/2001/xml-events" 
  height="500px" 
  width="500px" 
>
<path fill="rgb( 220, 225, 234 )"
 d="M-0,0 L500,0 L500,500 L-0,500 L-0,0 Z "/>
<path fill="rgb( 255, 255, 255 )"
 d="M130.22,355.312 C140.281,328.666 156.284,323.615 169.091,321.324 C181.887,319.025 212.988,311.207 215.724,303.865 C216.608,301.486 216.912,296.954 216.929,291.92 C224.229,297.987 234.812,304.346 247.833,304.916 C248.463,304.943 249.093,304.961 249.722,304.961 C261.2,304.961 272.366,300.366 283.064,291.293 C283.059,296.573 283.35,301.391 284.271,303.865 C287.005,311.205 318.105,319.022 330.902,321.324 C343.706,323.615 359.709,328.666 369.77,355.312 C379.83,381.968 120.16,381.968 130.22,355.312 ZM299.493,240.919 C299.493,240.919 298.584,256.561 284.53,273.694 L284.51,273.677 C272.682,287.31 260.552,293.912 248.4,293.454 C231.867,292.766 219.461,279.03 216.262,275.125 L216.262,275.115 C201.073,257.432 200.171,240.919 200.171,240.919 C200.171,240.919 191.948,242.3 187.377,222.538 C182.806,202.773 191.948,207.376 191.948,207.376 C180.06,144.898 228.588,127.895 228.588,127.895 C237.488,125.198 244.497,124.818 249.832,125.368 C255.182,124.82 262.176,125.198 271.086,127.895 C271.086,127.895 319.611,144.898 307.728,207.376 C307.728,207.376 316.873,202.776 312.302,222.538 C307.728,242.3 299.493,240.919 299.493,240.919 Z "/>
</svg>
